<svg width="33" height="33" viewBox="0 0 33 33" fill="none" xmlns="http://www.w3.org/2000/svg">
<path fill-rule="evenodd" clip-rule="evenodd" d="M0.725494 16.5119C0.725494 7.81054 7.7792 0.756836 16.4805 0.756836C25.1819 0.756836 32.2356 7.81054 32.2356 16.5119C32.2356 25.2132 25.1819 32.2669 16.4805 32.2669C7.7792 32.2669 0.725494 25.2132 0.725494 16.5119ZM22.8778 25.2503L26.3677 7.65513L26.3676 7.65544C26.3676 6.48405 24.7569 7.1917 24.7569 7.1917L5.161 14.8789C5.161 14.8789 4.23353 15.1961 4.3068 15.7818C4.38007 16.3674 5.13657 16.6358 5.13657 16.6358L10.0661 18.2953L10.0661 18.2954L10.0688 18.3044L21.8919 10.7963C21.8919 10.7963 22.5753 10.3814 22.5508 10.7963C22.5508 10.7963 22.6728 10.8695 22.3066 11.2112C21.9407 11.5529 13.009 19.5815 13.009 19.5815L12.3679 25.0507C12.3729 25.0522 12.3755 25.0524 12.3755 25.0524L12.3818 24.9991L12.3757 25.0524C12.648 25.1708 12.8972 24.9819 12.8972 24.9819L16.0821 22.0779L21.0476 25.8848C22.3898 26.4705 22.8778 25.2503 22.8778 25.2503Z" fill="white"/>
</svg>
